<svg width="126" height="72" viewBox="0 0 126 72" fill="none" xmlns="http://www.w3.org/2000/svg">
<g clip-path="url(#clip0_15_37)">
<path d="M67.0594 2.9085C68.7248 1.17604 70.9865 0.202759 73.3416 0.202759C83.9375 0.202759 93.923 0.202764 103.757 0.202784C123.535 0.202825 133.439 25.0792 119.453 39.628L88.9903 71.319C87.5918 72.774 85.2005 71.7435 85.2005 69.6859V41.7736L88.721 38.1112C91.518 35.2015 89.5371 30.2261 85.5814 30.2261H40.8003L67.0594 2.9085Z" fill="#8655FC"/>
<path d="M58.9408 69.0916C57.2756 70.8241 55.0139 71.7973 52.6588 71.7973C42.0629 71.7973 32.0774 71.7973 22.2439 71.7973C2.46569 71.7971 -7.43825 46.921 6.54697 32.3719L37.0102 0.681065C38.4086 -0.773834 40.7999 0.256585 40.7999 2.31412L40.8001 30.2261L37.2794 33.8888C34.4824 36.7987 36.4633 41.7739 40.419 41.7739L85.2003 41.7737L58.9408 69.0916Z" fill="#8655FC"/>
</g>
<defs>
<clipPath id="clip0_15_37">
<rect width="126" height="72" fill="white"/>
</clipPath>
</defs>
</svg>
